<svg width="29" height="29" viewBox="0 0 29 29" fill="none" xmlns="http://www.w3.org/2000/svg">
<path d="M1.24414 22.142V6.63245C1.24414 4.82283 1.24414 3.91735 1.59632 3.22617C1.9061 2.61818 2.40004 2.12424 3.00803 1.81446C3.69921 1.46228 4.60469 1.46228 6.41431 1.46228H7.70646H21.9239C23.7335 1.46228 24.637 1.46228 25.3282 1.81446C25.9362 2.12424 26.4318 2.61818 26.7416 3.22617C27.0934 3.91667 27.0934 4.82106 27.0934 6.62714V22.1475C27.0934 23.9536 27.0934 24.8566 26.7416 25.5472C26.4318 26.1551 25.9362 26.6499 25.3282 26.9597C24.6377 27.3116 23.7346 27.3116 21.9286 27.3116H7.70646H6.409C4.60292 27.3116 3.69853 27.3116 3.00803 26.9597C2.40004 26.6499 1.9061 26.1551 1.59632 25.5472C1.24414 24.856 1.24414 23.9516 1.24414 22.142Z" fill="#111111"/>
<path d="M7.70646 1.46228H6.41431C4.60469 1.46228 3.69921 1.46228 3.00803 1.81446C2.40004 2.12424 1.9061 2.61818 1.59632 3.22617C1.24414 3.91735 1.24414 4.82283 1.24414 6.63245V22.142C1.24414 23.9516 1.24414 24.856 1.59632 25.5472C1.9061 26.1551 2.40004 26.6499 3.00803 26.9597C3.69853 27.3116 4.60292 27.3116 6.409 27.3116H7.70646M7.70646 1.46228H21.9239C23.7335 1.46228 24.637 1.46228 25.3282 1.81446C25.9362 2.12424 26.4318 2.61818 26.7416 3.22617C27.0934 3.91667 27.0934 4.82106 27.0934 6.62714V22.1475C27.0934 23.9536 27.0934 24.8566 26.7416 25.5472C26.4318 26.1551 25.9362 26.6499 25.3282 26.9597C24.6377 27.3116 23.7346 27.3116 21.9286 27.3116H7.70646M7.70646 1.46228V27.3116M14.1688 12.7713H20.6311M14.1688 7.9246H20.6311" stroke="#FAF9F9" stroke-width="2.5" stroke-linecap="round" stroke-linejoin="round"/>
</svg>
