<svg width="30" height="29" viewBox="0 0 30 29" fill="none" xmlns="http://www.w3.org/2000/svg">
<path d="M8.53849 1.46228H7.24634C5.43672 1.46228 4.53124 1.46228 3.84006 1.81446C3.23207 2.12424 2.73813 2.61818 2.42835 3.22617C2.07617 3.91735 2.07617 4.82283 2.07617 6.63245V22.142C2.07617 23.9516 2.07617 24.856 2.42835 25.5472C2.73813 26.1551 3.23207 26.6499 3.84006 26.9597C4.53056 27.3116 5.43495 27.3116 7.24103 27.3116H8.53849M8.53849 1.46228H22.7559C24.5655 1.46228 25.4691 1.46228 26.1603 1.81446C26.7682 2.12424 27.2638 2.61818 27.5736 3.22617C27.9254 3.91667 27.9254 4.82106 27.9254 6.62714V22.1475C27.9254 23.9536 27.9254 24.8566 27.5736 25.5472C27.2638 26.1551 26.7682 26.6499 26.1603 26.9597C25.4697 27.3116 24.5667 27.3116 22.7606 27.3116H8.53849M8.53849 1.46228V27.3116M15.0008 12.7713H21.4631M15.0008 7.9246H21.4631" stroke="#AEAEAE" stroke-width="2.5" stroke-linecap="round" stroke-linejoin="round"/>
</svg>
