<svg width="29" height="30" viewBox="0 0 29 30" fill="none" xmlns="http://www.w3.org/2000/svg">
<path d="M27.4254 23.4651V14.502C27.4254 13.6387 27.4247 13.2068 27.3197 12.8051C27.2267 12.4491 27.074 12.1123 26.8674 11.8078C26.6342 11.4643 26.31 11.1795 25.6603 10.611L17.9055 3.82556C16.6993 2.77012 16.0962 2.24267 15.4175 2.04195C14.8194 1.86509 14.1819 1.86509 13.5838 2.04195C12.9056 2.24252 12.3034 2.76947 11.099 3.82331L3.34163 10.611C2.69196 11.1795 2.36787 11.4643 2.13468 11.8078C1.92803 12.1123 1.77416 12.4491 1.68114 12.8051C1.57617 13.2068 1.57617 13.6387 1.57617 14.502V23.4651C1.57617 24.9706 1.57617 25.7231 1.82213 26.3169C2.15007 27.1086 2.77868 27.7384 3.5704 28.0664C4.1642 28.3123 4.91696 28.3123 6.42249 28.3123C7.92803 28.3123 8.68162 28.3123 9.27542 28.0664C10.0671 27.7384 10.6956 27.1088 11.0235 26.317C11.2695 25.7232 11.2696 24.9705 11.2696 23.4649V21.8494C11.2696 20.0648 12.7163 18.6182 14.5008 18.6182C16.2853 18.6182 17.732 20.0648 17.732 21.8494V23.4649C17.732 24.9705 17.732 25.7232 17.9779 26.317C18.3059 27.1088 18.9345 27.7384 19.7262 28.0664C20.32 28.3123 21.0728 28.3123 22.5783 28.3123C24.0838 28.3123 24.8374 28.3123 25.4312 28.0664C26.2229 27.7384 26.8514 27.1086 27.1793 26.3169C27.4253 25.7231 27.4254 24.9706 27.4254 23.4651Z" stroke="#AEAEAE" stroke-width="2.5" stroke-linecap="round" stroke-linejoin="round"/>
</svg>
