<svg width="27" height="28" viewBox="0 0 27 28" fill="none" xmlns="http://www.w3.org/2000/svg">
<path d="M26.6481 22.4651V13.502C26.6481 12.6387 26.6474 12.2068 26.5424 11.8051C26.4494 11.4491 26.2967 11.1123 26.09 10.8078C25.8568 10.4643 25.5326 10.1795 24.883 9.61099L17.1282 2.82556C15.922 1.77012 15.3189 1.24267 14.6401 1.04195C14.042 0.865085 13.4046 0.865085 12.8065 1.04195C12.1283 1.24252 11.526 1.76947 10.3216 2.82331L2.56429 9.61099C1.91461 10.1795 1.59053 10.4643 1.35734 10.8078C1.15069 11.1123 0.996815 11.4491 0.903795 11.8051C0.798828 12.2068 0.798828 12.6387 0.798828 13.502V22.4651C0.798828 23.9706 0.798828 24.7231 1.04479 25.3169C1.37273 26.1086 2.00133 26.7384 2.79306 27.0664C3.38685 27.3123 4.13962 27.3123 5.64515 27.3123C7.15068 27.3123 7.90428 27.3123 8.49807 27.0664C9.2898 26.7384 9.91824 26.1088 10.2462 25.317C10.4921 24.7232 10.4923 23.9705 10.4923 22.4649V20.8494C10.4923 19.0648 11.9389 17.6182 13.7235 17.6182C15.508 17.6182 16.9546 19.0648 16.9546 20.8494V22.4649C16.9546 23.9705 16.9546 24.7232 17.2006 25.317C17.5285 26.1088 18.1571 26.7384 18.9489 27.0664C19.5426 27.3123 20.2954 27.3123 21.8009 27.3123C23.3065 27.3123 24.0601 27.3123 24.6539 27.0664C25.4456 26.7384 26.074 26.1086 26.402 25.3169C26.6479 24.7231 26.6481 23.9706 26.6481 22.4651Z" fill="#111111"/>
</svg>
