<svg width="13" height="14" viewBox="0 0 13 14" fill="none" xmlns="http://www.w3.org/2000/svg">
<path d="M5.41663 9.00016H2.70829V11.7085M7.58329 4.66683H10.2916V1.9585M2.48242 5.21034C2.78613 4.45865 3.29461 3.80723 3.95009 3.33012C4.60557 2.85301 5.38242 2.56924 6.19108 2.51127C6.99973 2.45331 7.80794 2.62334 8.52477 3.00208C9.24159 3.38082 9.83729 3.9532 10.2451 4.6539M10.5178 8.45691C10.2141 9.2086 9.70561 9.86002 9.05013 10.3371C8.39465 10.8142 7.61859 11.0977 6.80994 11.1556C6.00128 11.2136 5.19241 11.0436 4.47559 10.6648C3.75876 10.2861 3.16265 9.71381 2.75484 9.01312" stroke="#767676" stroke-linecap="round" stroke-linejoin="round"/>
</svg>
